<?xml version="1.0" standalone="no"?>
<!DOCTYPE svg PUBLIC "-//W3C//DTD SVG 20010904//EN"
 "http://www.w3.org/TR/2001/REC-SVG-20010904/DTD/svg10.dtd">
<svg version="1.0" xmlns="http://www.w3.org/2000/svg"
 width="512.000000pt" height="512.000000pt" viewBox="0 0 512.000000 512.000000"
 preserveAspectRatio="xMidYMid meet">
<metadata>
Created by potrace 1.16, written by Peter Selinger 2001-2019
</metadata>
<g transform="translate(0.000000,512.000000) scale(0.100000,-0.100000)"
fill="#000000" stroke="none">
<path d="M21 5094 l-21 -27 0 -2507 0 -2507 21 -27 21 -26 1531 3 c843 2 1552
8 1577 12 25 4 50 11 55 15 6 4 35 11 65 15 30 4 60 11 65 15 6 4 29 11 52 15
24 4 45 10 48 15 3 4 20 11 39 14 20 4 48 13 63 21 15 8 34 15 41 15 7 0 20 4
30 9 9 5 70 35 136 67 65 31 141 72 168 90 28 19 51 34 53 34 21 0 264 192
361 286 134 129 294 323 371 450 15 25 36 58 45 72 9 15 25 43 35 62 9 19 19
37 22 40 13 11 121 242 121 257 0 4 7 21 15 36 8 16 26 65 40 110 15 45 30 89
35 98 5 9 12 34 15 55 4 22 11 48 16 59 9 21 30 124 57 290 24 143 24 667 0
810 -27 166 -48 269 -57 290 -5 11 -13 38 -16 60 -4 22 -10 45 -14 50 -4 6
-14 33 -21 60 -7 28 -17 54 -21 59 -5 6 -9 17 -9 25 -1 9 -9 34 -20 56 -11 22
-19 44 -20 48 0 16 -109 246 -121 257 -3 3 -13 21 -23 40 -22 44 -32 61 -78
131 -158 244 -364 469 -577 629 -18 14 -38 30 -44 35 -88 76 -478 285 -531
285 -8 0 -17 4 -20 9 -4 5 -24 12 -46 16 -22 4 -42 10 -45 15 -3 5 -24 11 -48
15 -23 4 -46 11 -52 15 -5 4 -35 11 -65 15 -30 4 -59 11 -65 15 -5 4 -30 11
-55 15 -25 4 -734 10 -1577 12 l-1531 3 -21 -26z m2928 -204 c31 -5 90 -14
131 -19 98 -13 190 -30 215 -41 11 -5 36 -12 55 -16 19 -3 40 -10 45 -14 6 -4
26 -11 45 -15 19 -4 41 -11 50 -16 8 -5 38 -18 65 -30 158 -69 261 -127 390
-220 113 -82 139 -104 234 -194 160 -153 322 -363 419 -545 50 -94 61 -116 82
-157 33 -68 15 -50 -29 30 -173 308 -487 597 -816 749 -93 43 -216 88 -243 88
-10 0 -22 4 -27 9 -9 8 -61 20 -180 41 -27 5 -755 9 -1617 9 l-1568 1 0 103
c1 135 25 190 103 233 28 16 2559 20 2646 4z m381 -580 c107 -14 254 -52 345
-90 84 -34 249 -121 290 -152 6 -4 42 -31 80 -59 159 -117 337 -319 436 -496
89 -157 106 -199 43 -103 -87 132 -231 278 -359 364 -57 39 -224 126 -240 126
-5 0 -22 6 -37 14 -14 8 -46 17 -70 21 -24 4 -48 11 -53 15 -37 30 -218 33
-1882 34 l-1683 1 0 97 c0 72 5 107 19 140 18 43 52 80 81 91 25 9 2960 7
3030 -3z m-2870 -1722 c-1 -963 -3 -1166 -14 -1181 -20 -26 -69 -37 -163 -37
l-83 0 0 1153 c0 1121 1 1153 19 1184 23 36 35 40 154 42 l87 1 0 -1162z m470
1150 c0 -5 0 -527 0 -1162 0 -1116 -1 -1155 -19 -1177 -17 -21 -28 -24 -125
-27 l-106 -4 0 1164 0 1165 23 20 c12 12 31 23 42 26 30 8 185 3 185 -5z
m2665 1 c66 -5 124 -14 130 -18 5 -5 27 -12 49 -15 21 -4 46 -11 55 -15 52
-26 110 -51 119 -51 6 0 12 -3 14 -7 2 -5 23 -19 47 -32 52 -28 45 -23 136
-99 163 -137 289 -323 353 -522 45 -141 52 -173 63 -294 13 -141 1 -337 -27
-429 -80 -270 -157 -409 -317 -570 -85 -86 -217 -187 -245 -187 -7 0 -12 -4
-12 -10 0 -5 -5 -10 -11 -10 -10 0 -89 -33 -120 -50 -9 -5 -34 -12 -55 -16
-22 -3 -44 -10 -50 -15 -30 -24 -325 -30 -1389 -27 -610 2 -1117 6 -1125 11
-8 4 -25 22 -37 40 l-23 33 0 1106 0 1105 22 29 c12 16 23 31 24 33 2 2 18 7
36 11 52 12 2223 12 2363 -1z m937 -2040 c-16 -30 -39 -70 -51 -89 -11 -19
-24 -42 -28 -50 -3 -8 -38 -58 -76 -110 -82 -111 -266 -298 -352 -355 -33 -22
-62 -42 -65 -46 -17 -18 -196 -112 -285 -149 -53 -23 -185 -62 -225 -67 -25
-3 -51 -11 -59 -17 -10 -8 -456 -12 -1604 -14 l-1589 -3 4 113 c4 121 18 160
69 196 22 16 151 17 1654 23 1608 6 1810 10 1840 40 5 5 17 9 27 9 38 0 253
85 278 110 3 3 23 14 44 25 22 11 44 25 51 30 6 6 26 21 45 35 105 74 269 249
325 347 31 54 28 29 -3 -28z m143 -211 c-20 -41 -33 -67 -75 -143 -19 -33 -38
-69 -44 -80 -32 -57 -139 -206 -214 -297 -96 -115 -237 -247 -362 -339 -105
-78 -213 -149 -225 -149 -3 0 -22 -10 -43 -23 -20 -13 -77 -40 -127 -61 -49
-22 -104 -45 -122 -52 -17 -8 -38 -14 -46 -14 -9 0 -18 -4 -21 -9 -4 -5 -25
-12 -48 -16 -23 -4 -49 -11 -58 -16 -18 -10 -108 -27 -210 -40 -41 -5 -100
-14 -131 -19 -35 -6 -550 -10 -1403 -10 l-1348 0 4 113 c3 103 5 116 31 155
19 30 42 49 73 63 45 19 83 19 1537 20 821 0 1515 4 1542 9 111 20 171 33 180
40 6 4 29 11 52 15 24 4 45 11 49 16 3 5 12 9 21 9 17 0 53 15 173 72 314 148
597 409 779 716 45 75 63 95 36 40z"/>
</g>
</svg>
